<svg width="28" height="29" viewBox="0 0 28 29" fill="none" xmlns="http://www.w3.org/2000/svg">
<g opacity="0.9">
<g style="mix-blend-mode:multiply" opacity="0.75">
<path fill-rule="evenodd" clip-rule="evenodd" d="M13.9996 28.4613C6.36939 28.4613 0.183856 22.2238 0.183856 14.5294C0.183857 6.83504 6.36939 0.597518 13.9996 0.597518C21.6299 0.597519 27.8154 6.83504 27.8154 14.5294C27.8154 22.2238 21.6299 28.4613 13.9996 28.4613ZM19.7951 13.3363C20.0979 12.9969 20.0684 12.4764 19.729 12.1735C19.3897 11.8707 18.8691 11.9002 18.5663 12.2396L13.9997 17.3561L9.43323 12.2396C9.13038 11.9002 8.60979 11.8707 8.27046 12.1735C7.93113 12.4764 7.90156 12.9969 8.20441 13.3363L13.3853 19.1412C13.5416 19.3163 13.7651 19.4164 13.9997 19.4164C14.2344 19.4164 14.4579 19.3163 14.6142 19.1412L19.7951 13.3363Z" fill="#F9FAFB"/>
</g>
</g>
</svg>
