<svg width="20" height="20" viewBox="0 0 20 20" fill="none" xmlns="http://www.w3.org/2000/svg">
<path d="M7.4847 18.3334V15.3623C7.48727 14.9946 7.63518 14.6428 7.89614 14.3836C8.1571 14.1245 8.51 13.979 8.87777 13.979H11.6735C12.0404 13.979 12.3922 14.1248 12.6517 14.3842C12.9111 14.6436 13.0568 14.9955 13.0568 15.3623V18.3334C13.0568 18.6512 13.183 18.956 13.4077 19.1807C13.6324 19.4054 13.9372 19.5316 14.255 19.5316H16.2032C17.0958 19.5328 17.9531 19.1829 18.5899 18.5575C19.2136 17.9314 19.5638 17.0838 19.564 16.2001V7.71535C19.5644 7.36111 19.4859 7.01123 19.3343 6.69109C19.1826 6.37095 18.9616 6.0886 18.6873 5.86449L12.1606 0.682072C11.6085 0.22955 10.9135 -0.0120294 10.1998 0.000461187C9.48604 0.0129517 8.79999 0.278706 8.26406 0.750269L1.92241 5.83527C1.63017 6.04958 1.39056 6.32762 1.22177 6.64831C1.05299 6.969 0.95947 7.3239 0.948273 7.68613V16.1611C0.948265 16.6016 1.03534 17.0376 1.20447 17.4443C1.3736 17.851 1.62143 18.2202 1.93377 18.5307C2.2461 18.8412 2.61674 19.0869 3.02438 19.2537C3.43202 19.4205 3.86864 19.505 4.30906 19.5024H6.17939C6.4964 19.5025 6.80073 19.3779 7.02671 19.1555C7.25268 18.9332 7.3822 18.6309 7.38731 18.314L7.4847 18.3334Z" fill="#141414"/>
</svg>