<svg width="20" height="24" viewBox="0 0 20 24" fill="none" xmlns="http://www.w3.org/2000/svg">
<path d="M9.66361 21.6766C7.71533 21.6766 1.94827 21.6766 1.94827 18.0723C1.94827 14.8674 6.35154 14.4972 9.66361 14.4972C11.6119 14.4972 17.3787 14.4972 17.3787 18.1015C17.3787 21.3065 12.9757 21.6766 9.66361 21.6766ZM9.66361 15.9584C5.51378 15.9584 3.40948 16.6695 3.40948 18.0723C3.40948 19.475 5.51378 20.2153 9.66361 20.2153C13.8134 20.2153 15.9175 19.5043 15.9175 18.1015C15.9175 16.6988 13.8134 15.9584 9.66361 15.9584Z" fill="#141414"/>
<path d="M9.66366 12.6951C8.64186 12.6893 7.64463 12.381 6.79785 11.8091C5.95106 11.2373 5.29249 10.4273 4.90546 9.48166C4.51843 8.53598 4.42028 7.49685 4.62316 6.49539C4.82604 5.49392 5.32104 4.57505 6.0456 3.85456C6.77016 3.13407 7.69168 2.64433 8.69427 2.4471C9.69687 2.24987 10.7355 2.35394 11.679 2.74629C12.6225 3.13864 13.4286 3.80164 13.9957 4.65163C14.5628 5.50163 14.8654 6.50051 14.8654 7.52232C14.8668 8.20692 14.7321 8.88496 14.4689 9.51697C14.2058 10.149 13.8196 10.7224 13.3328 11.2038C12.846 11.6851 12.2683 12.0648 11.6333 12.3208C10.9984 12.5769 10.3189 12.7041 9.6344 12.6951H9.66366ZM9.66366 3.74278C8.66123 3.74278 7.69978 4.14092 6.99096 4.84974C6.28214 5.55857 5.88388 6.51989 5.88388 7.52232C5.88388 8.52475 6.28214 9.48619 6.99096 10.195C7.69978 10.9038 8.66123 11.302 9.66366 11.302V12.0035V11.302C10.6661 11.302 11.6273 10.9038 12.3361 10.195C13.0449 9.48619 13.4432 8.52475 13.4432 7.52232C13.4432 6.51989 13.0449 5.55857 12.3361 4.84974C11.6273 4.14092 10.6661 3.74278 9.66366 3.74278Z" fill="#141414"/>
</svg>
