<svg width="23" height="20" viewBox="0 0 23 20" fill="none" xmlns="http://www.w3.org/2000/svg">
<path d="M6.08922 8.77988C4.44293 8.77988 3.1669 8.60453 2.53371 7.80574C1.90052 7.00695 1.94913 6.08152 1.94913 4.70799H2.67974H1.94913C1.94913 1.91221 2.12448 0.567902 6.08922 0.567902C10.054 0.567902 10.2293 1.91221 10.2293 4.70799C10.2293 6.101 10.2294 7.10439 9.64497 7.83499C9.06048 8.56559 7.73551 8.77988 6.08922 8.77988ZM6.08922 1.96091C3.41034 1.96091 3.41034 2.16548 3.41034 4.63979C3.31129 5.37768 3.40183 6.12869 3.67338 6.82191C3.93639 7.14337 4.6475 7.28948 6.08922 7.28948C7.53094 7.28948 8.24205 7.14337 8.50506 6.82191C8.77619 6.12858 8.86672 5.37768 8.7681 4.63979C8.7681 2.16548 8.7681 1.96091 6.08922 1.96091Z" fill="#141414"/>
<path d="M16.8047 8.77988C15.1584 8.77988 13.8824 8.60453 13.2492 7.80574C12.616 7.00695 12.6646 6.08152 12.6646 4.70799H13.3953H12.6646C12.6646 1.91221 12.84 0.567902 16.8047 0.567902C20.7695 0.567902 20.9448 1.91221 20.9448 4.70799C20.9448 6.101 20.945 7.10439 20.3605 7.83499C19.776 8.56559 18.451 8.77988 16.8047 8.77988ZM16.8047 1.96091C14.1259 1.96091 14.1259 2.16548 14.1259 4.63979C14.0268 5.37768 14.1173 6.12869 14.3889 6.82191C14.6519 7.14337 15.363 7.28948 16.8047 7.28948C18.2465 7.28948 18.9576 7.14337 19.2206 6.82191C19.4917 6.12858 19.5822 5.37768 19.4836 4.63979C19.4836 2.16548 19.4836 1.96091 16.8047 1.96091Z" fill="#141414"/>
<path d="M6.08922 19.4954C4.44293 19.4954 3.1669 19.32 2.53371 18.5213C1.90052 17.7225 1.94913 16.797 1.94913 15.4235H2.67974H1.94913C1.94913 12.6277 2.12448 11.2834 6.08922 11.2834C10.054 11.2834 10.2293 12.6277 10.2293 15.4235C10.2293 16.8165 10.2294 17.8199 9.64497 18.5505C9.06048 19.2811 7.73551 19.4954 6.08922 19.4954ZM6.08922 12.6764C3.41034 12.6764 3.41034 12.881 3.41034 15.3553C3.31129 16.0932 3.40183 16.8442 3.67338 17.5374C3.93639 17.8589 4.6475 18.005 6.08922 18.005C7.53094 18.005 8.24205 17.8589 8.50506 17.5374C8.77619 16.8441 8.86672 16.0932 8.7681 15.3553C8.7681 12.881 8.7681 12.6764 6.08922 12.6764Z" fill="#141414"/>
<path d="M16.8047 19.4954C15.1584 19.4954 13.8824 19.32 13.2492 18.5213C12.616 17.7225 12.6646 16.797 12.6646 15.4235H13.3953H12.6646C12.6646 12.6277 12.84 11.2834 16.8047 11.2834C20.7695 11.2834 20.9448 12.6277 20.9448 15.4235C20.9448 16.8165 20.945 17.8199 20.3605 18.5505C19.776 19.2811 18.451 19.4954 16.8047 19.4954ZM16.8047 12.6764C14.1259 12.6764 14.1259 12.881 14.1259 15.3553C14.0268 16.0932 14.1173 16.8442 14.3889 17.5374C14.6519 17.8589 15.363 18.005 16.8047 18.005C18.2465 18.005 18.9576 17.8589 19.2206 17.5374C19.4917 16.8441 19.5822 16.0932 19.4836 15.3553C19.4836 12.881 19.4836 12.6764 16.8047 12.6764Z" fill="#141414"/>
</svg>