<svg width="23" height="24" viewBox="0 0 23 24" fill="none" xmlns="http://www.w3.org/2000/svg">
<path d="M11.5 20.7498C16.2635 20.7498 20.125 16.8882 20.125 12.1248C20.125 7.3613 16.2635 3.49976 11.5 3.49976C6.73654 3.49976 2.875 7.3613 2.875 12.1248C2.875 16.8882 6.73654 20.7498 11.5 20.7498Z" stroke="#141414" stroke-width="1.5" stroke-linecap="round" stroke-linejoin="round"/>
<path d="M11.5 17.8748C12.0954 17.8748 12.5781 17.3921 12.5781 16.7966C12.5781 16.2012 12.0954 15.7185 11.5 15.7185C10.9046 15.7185 10.4219 16.2012 10.4219 16.7966C10.4219 17.3921 10.9046 17.8748 11.5 17.8748Z" fill="#141414"/>
<path d="M11.5 13.5622V12.8435C11.9975 12.8435 12.4839 12.696 12.8976 12.4195C13.3113 12.1431 13.6337 11.7502 13.8241 11.2906C14.0145 10.8309 14.0644 10.3251 13.9673 9.8371C13.8702 9.34912 13.6306 8.90088 13.2788 8.54906C12.927 8.19724 12.4788 7.95765 11.9908 7.86059C11.5028 7.76352 10.997 7.81334 10.5373 8.00374C10.0776 8.19414 9.68475 8.51658 9.40833 8.93027C9.13191 9.34396 8.98438 9.83033 8.98438 10.3279" stroke="#141414" stroke-width="1.60107" stroke-linecap="round" stroke-linejoin="round"/>
</svg>
