<svg width="22" height="26" viewBox="0 0 22 26" fill="none" xmlns="http://www.w3.org/2000/svg">
<path d="M10.9608 19.3812C6.40188 19.3812 2.29102 19.0598 1.95007 15.1827C1.92115 14.0643 2.24137 12.9645 2.86594 12.0362C3.47195 11.1457 3.77263 10.0827 3.72307 9.00666C3.72307 5.85045 6.64542 2.47992 10.9608 2.47992C15.2763 2.47992 18.1989 5.85045 18.1989 9.00666C18.1429 10.085 18.4403 11.1522 19.0462 12.046C19.6862 12.9443 20.027 14.0213 20.0204 15.1243C19.6307 19.0598 15.5101 19.3812 10.9608 19.3812ZM10.9608 3.94113C7.55137 3.94113 5.18428 6.61028 5.18428 9.00666C5.23373 10.3465 4.86234 11.6682 4.12238 12.7863C3.64278 13.4665 3.39359 14.2824 3.41128 15.1145C3.42106 15.5769 3.57183 16.0252 3.84341 16.3995C4.11499 16.7738 4.49449 17.0562 4.93099 17.2089C6.06099 17.6959 7.97999 17.92 10.9608 17.92C17.0979 17.92 18.3546 16.9459 18.5104 15.0561C18.5252 14.2455 18.2756 13.4521 17.7993 12.7961C17.0506 11.6784 16.6788 10.3507 16.7377 9.00666C16.7377 6.61028 14.3606 3.94113 10.9608 3.94113Z" fill="#141414"/>
<path d="M10.9125 23.4239C10.357 23.4196 9.80884 23.2965 9.30481 23.063C8.80078 22.8295 8.35255 22.4909 7.9901 22.0699C7.88054 21.924 7.82954 21.7423 7.84717 21.5606C7.86479 21.379 7.94965 21.2105 8.08523 21.0884C8.22081 20.9662 8.39719 20.8993 8.57967 20.9006C8.76216 20.902 8.93751 20.9716 9.07126 21.0957C9.29723 21.3623 9.5776 21.5775 9.89343 21.727C10.2093 21.8765 10.5534 21.9568 10.9028 21.9627C11.2519 21.9556 11.5955 21.8747 11.9111 21.7253C12.2268 21.5758 12.5072 21.3613 12.734 21.0957C12.8012 21.0268 12.8815 20.972 12.9702 20.9346C13.0589 20.8972 13.1541 20.878 13.2504 20.878C13.3466 20.878 13.4418 20.8972 13.5305 20.9346C13.6192 20.972 13.6995 21.0268 13.7667 21.0957C13.8934 21.2236 13.9684 21.3937 13.9774 21.5735C13.9864 21.7533 13.9287 21.93 13.8154 22.0699C13.453 22.4909 13.0045 22.8295 12.5005 23.063C11.9965 23.2965 11.4485 23.4196 10.893 23.4239" fill="#141414"/>
</svg>
