<svg width="31" height="25" viewBox="0 0 31 25" fill="none" xmlns="http://www.w3.org/2000/svg">
<g opacity="0.5">
<path d="M20.4835 25H11.7414C11.4565 25 11.1833 24.8865 10.9819 24.6844C10.7805 24.4823 10.6673 24.2082 10.6673 23.9224C10.6673 23.6366 10.7805 23.3625 10.9819 23.1604C11.1833 22.9583 11.4565 22.8448 11.7414 22.8448H19.766L28.3177 2.15517H23.6756L17.0701 17.9303C16.9882 18.126 16.8505 18.293 16.6744 18.4104C16.4982 18.5279 16.2914 18.5905 16.0799 18.5905H9.55743C9.35157 18.5904 9.15007 18.531 8.97692 18.4193C8.80376 18.3076 8.66625 18.1484 8.58075 17.9605L1.09668 1.52513C1.0217 1.36114 0.988962 1.18089 1.00147 1.0009C1.01398 0.820906 1.07134 0.646959 1.16828 0.49499C1.26554 0.343165 1.39926 0.218288 1.55714 0.131804C1.71503 0.0453207 1.89204 -1.73949e-05 2.07193 5.00647e-09H9.16074C9.36799 3.54901e-06 9.57082 0.0601745 9.74475 0.17324C9.91869 0.286305 10.0563 0.447453 10.141 0.63723L13.9976 9.28379C14.114 9.54462 14.1224 9.84114 14.0209 10.1082C13.9193 10.3752 13.7163 10.5908 13.4563 10.7076C13.1963 10.8244 12.9007 10.8328 12.6346 10.731C12.3684 10.6291 12.1535 10.4253 12.0371 10.1645L8.46475 2.15592H3.73888L10.2412 16.4361H15.3595L21.965 0.660907C22.0469 0.46526 22.1846 0.298274 22.3608 0.180825C22.537 0.0633765 22.7438 0.000732618 22.9553 0.000745406H29.9195C30.0961 0.000797602 30.27 0.0445405 30.4258 0.128121C30.5815 0.211702 30.7143 0.332535 30.8124 0.479906C30.9105 0.627341 30.9709 0.796789 30.9881 0.97323C31.0054 1.14967 30.979 1.32763 30.9112 1.49137L21.4688 24.3362C21.3877 24.5318 21.2511 24.699 21.0758 24.8171C20.9006 24.9351 20.6946 24.9987 20.4835 25Z" fill="white"/>
</g>
</svg>