<svg width="123" height="25" viewBox="0 0 123 25" fill="none" xmlns="http://www.w3.org/2000/svg">
<path d="M18.6974 24.3203H10.5473C10.2817 24.3203 10.027 24.2098 9.83924 24.0132C9.65146 23.8166 9.54597 23.55 9.54597 23.272C9.54597 22.9939 9.65146 22.7273 9.83924 22.5307C10.027 22.3341 10.2817 22.2237 10.5473 22.2237H18.0285L26.0011 2.09657H21.6733L15.5152 17.4428C15.4388 17.6331 15.3104 17.7956 15.1462 17.9099C14.982 18.0241 14.7892 18.0851 14.592 18.085H8.51126C8.31935 18.085 8.13149 18.0272 7.97006 17.9185C7.80864 17.8099 7.68044 17.6549 7.60073 17.4722L0.623505 1.48367C0.553601 1.32413 0.523081 1.14878 0.534744 0.973684C0.546408 0.798586 0.599875 0.629369 0.690254 0.481531C0.780926 0.333835 0.905587 0.212353 1.05278 0.128221C1.19998 0.0440885 1.365 -1.69219e-05 1.53271 4.87035e-09H8.14144C8.33466 3.45251e-06 8.52375 0.0585384 8.6859 0.16853C8.84806 0.278521 8.97635 0.435287 9.05532 0.619904L12.6507 9.03137C12.7593 9.28511 12.7671 9.57356 12.6724 9.83332C12.5778 10.0931 12.3884 10.3029 12.1461 10.4165C11.9037 10.5301 11.6281 10.5383 11.38 10.4392C11.1319 10.3401 10.9315 10.1419 10.823 9.88814L7.49258 2.0973H3.08676L9.14877 15.9892H13.9204L20.0786 0.642938C20.1549 0.45261 20.2833 0.290164 20.4475 0.175909C20.6118 0.0616533 20.8046 0.000712699 21.0018 0.000725139H27.4944C27.659 0.000775916 27.8211 0.0433295 27.9663 0.124638C28.1115 0.205946 28.2353 0.323494 28.3268 0.466858C28.4183 0.610284 28.4746 0.775125 28.4906 0.946769C28.5067 1.11841 28.4821 1.29153 28.4189 1.45082L19.6159 23.6745C19.5404 23.8648 19.413 24.0275 19.2496 24.1423C19.0862 24.2571 18.8942 24.319 18.6974 24.3203Z" fill="#141414"/>
<path d="M40.5996 24.4301H39.2998L38.2231 20.7462H38.2L37.1233 24.4301H35.8159L34.2701 18.985H35.6852L36.5465 22.6074H36.5696L37.5386 18.985H38.9076L39.8843 22.6074H39.9074L40.7841 18.985H42.1531L40.5996 24.4301Z" fill="#141414"/>
<path d="M47.2803 24.4301L46.8573 23.3611H44.75L44.3501 24.4301H42.9196L45.2038 18.985H46.4804L48.7415 24.4301H47.2803ZM45.819 20.4386L45.1269 22.3074H46.4958L45.819 20.4386Z" fill="#141414"/>
<path d="M52.025 20.1079V24.4301H50.7099V20.1079H49.1718V18.985H53.5632V20.1079H52.025Z" fill="#141414"/>
<path d="M59.6833 23.6764C59.4424 23.9532 59.145 24.1737 58.7912 24.3378C58.4374 24.4967 58.0298 24.5762 57.5684 24.5762C57.148 24.5762 56.7583 24.507 56.3994 24.3685C56.0456 24.2301 55.738 24.0353 55.4765 23.784C55.215 23.5277 55.0099 23.2226 54.8612 22.8688C54.7126 22.5151 54.6382 22.1254 54.6382 21.6999C54.6382 21.264 54.7126 20.8693 54.8612 20.5155C55.0151 20.1617 55.2253 19.8618 55.4919 19.6157C55.7585 19.3644 56.0713 19.1722 56.4302 19.0389C56.7891 18.9056 57.1762 18.8389 57.5915 18.8389C57.976 18.8389 58.3528 18.9081 58.722 19.0465C59.0963 19.1799 59.3988 19.3772 59.6295 19.6387L58.7374 20.5309C58.6143 20.3617 58.4528 20.236 58.2529 20.154C58.0529 20.072 57.8478 20.031 57.6376 20.031C57.4069 20.031 57.1941 20.0745 56.9993 20.1617C56.8096 20.2437 56.6455 20.3591 56.5071 20.5078C56.3686 20.6565 56.261 20.8334 56.1841 21.0384C56.1071 21.2384 56.0687 21.4589 56.0687 21.6999C56.0687 21.946 56.1071 22.1715 56.1841 22.3766C56.261 22.5817 56.3661 22.7586 56.4994 22.9073C56.6378 23.0509 56.8019 23.1637 56.9916 23.2457C57.1813 23.3277 57.3889 23.3687 57.6145 23.3687C57.876 23.3687 58.1042 23.3175 58.299 23.2149C58.4938 23.1124 58.6502 22.9791 58.7681 22.815L59.6833 23.6764Z" fill="#141414"/>
<path d="M64.6461 24.4301V22.1536H62.5234V24.4301H61.2083V18.985H62.5234V21.0461H64.6461V18.985H65.9612V24.4301H64.6461Z" fill="#141414"/>
<path d="M69.4118 23.7533C69.4118 23.9686 69.3349 24.1481 69.1811 24.2916C69.0324 24.4352 68.853 24.507 68.6427 24.507C68.5351 24.507 68.4325 24.4865 68.3351 24.4454C68.2428 24.4096 68.1608 24.3583 68.089 24.2916C68.0172 24.225 67.9608 24.1481 67.9198 24.0609C67.8788 23.9686 67.8583 23.8686 67.8583 23.761C67.8583 23.6584 67.8788 23.561 67.9198 23.4687C67.9608 23.3764 68.0172 23.297 68.089 23.2303C68.1608 23.1585 68.2428 23.1021 68.3351 23.0611C68.4325 23.0201 68.5351 22.9996 68.6427 22.9996C68.853 22.9996 69.0324 23.0714 69.1811 23.2149C69.3349 23.3585 69.4118 23.5379 69.4118 23.7533Z" fill="#141414"/>
<path d="M78.0911 20.6616C78.0911 20.9795 78.0321 21.2487 77.9142 21.4691C77.7962 21.6845 77.6373 21.8588 77.4373 21.9921C77.2374 22.1254 77.0067 22.2228 76.7452 22.2843C76.4837 22.3459 76.212 22.3766 75.93 22.3766H75.2762V24.4301H73.9611V18.985H75.9607C76.2581 18.985 76.535 19.0158 76.7913 19.0773C77.0528 19.1337 77.2784 19.2286 77.4681 19.3619C77.6629 19.49 77.8142 19.6618 77.9219 19.8771C78.0347 20.0874 78.0911 20.3488 78.0911 20.6616ZM76.7759 20.6693C76.7759 20.5411 76.7503 20.436 76.699 20.354C76.6478 20.2719 76.5785 20.2078 76.4914 20.1617C76.4042 20.1156 76.3042 20.0848 76.1914 20.0694C76.0838 20.054 75.971 20.0463 75.8531 20.0463H75.2762V21.3307H75.83C75.953 21.3307 76.071 21.3204 76.1838 21.2999C76.2966 21.2794 76.3965 21.2435 76.4837 21.1923C76.576 21.141 76.6478 21.0743 76.699 20.9923C76.7503 20.9051 76.7759 20.7975 76.7759 20.6693Z" fill="#141414"/>
<path d="M79.8418 24.4301V18.985H81.1646V23.2841H83.2719V24.4301H79.8418Z" fill="#141414"/>
<path d="M88.5429 24.4301L88.1199 23.3611H86.0126L85.6127 24.4301H84.1822L86.4664 18.985H87.7431L90.0041 24.4301H88.5429ZM87.0816 20.4386L86.3895 22.3074H87.7584L87.0816 20.4386Z" fill="#141414"/>
<path d="M93.603 22.1228V24.4301H92.2879V22.1228L90.2421 18.985H91.8341L92.9954 21L94.1567 18.985H95.6949L93.603 22.1228Z" fill="#141414"/>
<path d="M97.8315 23.7533C97.8315 23.9686 97.7546 24.1481 97.6008 24.2916C97.4521 24.4352 97.2726 24.507 97.0624 24.507C96.9548 24.507 96.8522 24.4865 96.7548 24.4454C96.6625 24.4096 96.5805 24.3583 96.5087 24.2916C96.4369 24.225 96.3805 24.1481 96.3395 24.0609C96.2985 23.9686 96.278 23.8686 96.278 23.761C96.278 23.6584 96.2985 23.561 96.3395 23.4687C96.3805 23.3764 96.4369 23.297 96.5087 23.2303C96.5805 23.1585 96.6625 23.1021 96.7548 23.0611C96.8522 23.0201 96.9548 22.9996 97.0624 22.9996C97.2726 22.9996 97.4521 23.0714 97.6008 23.2149C97.7546 23.3585 97.8315 23.5379 97.8315 23.7533Z" fill="#141414"/>
<path d="M108.059 24.4301H106.759L105.682 20.7462H105.659L104.583 24.4301H103.275L101.729 18.985H103.144L104.006 22.6074H104.029L104.998 18.985H106.367L107.343 22.6074H107.367L108.243 18.985H109.612L108.059 24.4301Z" fill="#141414"/>
<path d="M111.138 24.4301V18.985H112.461V24.4301H111.138Z" fill="#141414"/>
<path d="M118.009 24.4301L115.817 20.8693H115.794L115.824 24.4301H114.548V18.985H116.047L118.232 22.5381H118.255L118.224 18.985H119.501V24.4301H118.009Z" fill="#141414"/>
<path d="M122.954 23.7533C122.954 23.9686 122.877 24.1481 122.723 24.2916C122.575 24.4352 122.395 24.507 122.185 24.507C122.077 24.507 121.975 24.4865 121.877 24.4454C121.785 24.4096 121.703 24.3583 121.631 24.2916C121.559 24.225 121.503 24.1481 121.462 24.0609C121.421 23.9686 121.401 23.8686 121.401 23.761C121.401 23.6584 121.421 23.561 121.462 23.4687C121.503 23.3764 121.559 23.297 121.631 23.2303C121.703 23.1585 121.785 23.1021 121.877 23.0611C121.975 23.0201 122.077 22.9996 122.185 22.9996C122.395 22.9996 122.575 23.0714 122.723 23.2149C122.877 23.3585 122.954 23.5379 122.954 23.7533Z" fill="#141414"/>
<path d="M40.1464 11.5159H37.4293L33.1709 0.285518H36.2217L38.8275 8.24829H38.8911L41.4811 0.285518H44.4842L40.1464 11.5159Z" fill="#141414"/>
<path d="M51.1203 11.5159V0.285518H58.6837V2.58552H53.742V4.69518H58.4135V6.86829H53.742V9.20002H58.9697V11.5159H51.1203Z" fill="#141414"/>
<path d="M72.5142 11.5159L70.0831 7.05864H69.1615V11.5159H66.4921V0.285518H70.7823C71.3225 0.285518 71.8468 0.343679 72.3553 0.460001C72.8744 0.565748 73.3352 0.750806 73.7377 1.01517C74.1508 1.27954 74.4792 1.62851 74.7228 2.06207C74.9665 2.49564 75.0883 3.03495 75.0883 3.68001C75.0883 4.44139 74.8817 5.08116 74.4686 5.59932C74.0555 6.11749 73.4835 6.4876 72.7525 6.70967L75.6921 11.5159H72.5142ZM72.403 3.72759C72.403 3.46323 72.3447 3.25173 72.2282 3.09311C72.1223 2.92391 71.9793 2.79702 71.7992 2.71242C71.6297 2.61725 71.4337 2.5538 71.2113 2.52207C70.9994 2.49035 70.7928 2.47449 70.5916 2.47449H69.1456V5.09174H70.4327C70.6551 5.09174 70.8829 5.07587 71.1159 5.04415C71.349 5.00185 71.5608 4.93311 71.7515 4.83794C71.9422 4.74277 72.0958 4.6053 72.2123 4.42553C72.3394 4.24576 72.403 4.01311 72.403 3.72759Z" fill="#141414"/>
<path d="M88.691 3.20414C88.458 2.90805 88.1508 2.67541 87.7695 2.50621C87.3987 2.32644 87.0385 2.23656 86.689 2.23656C86.5089 2.23656 86.3235 2.25242 86.1328 2.28414C85.9528 2.31587 85.7886 2.37932 85.6403 2.47449C85.492 2.55909 85.3648 2.67541 85.2589 2.82345C85.1636 2.96093 85.1159 3.1407 85.1159 3.36277C85.1159 3.55311 85.153 3.71173 85.2271 3.83863C85.3119 3.96553 85.4284 4.07656 85.5767 4.17173C85.7356 4.26691 85.921 4.35679 86.1328 4.44139C86.3447 4.51541 86.583 4.59472 86.8479 4.67932C87.2292 4.80622 87.6265 4.94898 88.0396 5.1076C88.4527 5.25564 88.8287 5.45656 89.1677 5.71036C89.5067 5.96415 89.7874 6.28139 90.0099 6.66208C90.2323 7.0322 90.3435 7.49749 90.3435 8.05795C90.3435 8.70301 90.2217 9.26347 89.9781 9.73933C89.745 10.2046 89.4273 10.5906 89.0247 10.8973C88.6222 11.2039 88.1614 11.4313 87.6423 11.5793C87.1233 11.7274 86.5883 11.8014 86.0375 11.8014C85.2324 11.8014 84.4539 11.6639 83.7017 11.389C82.9496 11.1035 82.3247 10.7016 81.8268 10.1835L83.6064 8.37519C83.8818 8.71358 84.242 8.9991 84.6869 9.23175C85.1424 9.45382 85.5926 9.56485 86.0375 9.56485C86.2388 9.56485 86.4347 9.5437 86.6254 9.5014C86.8161 9.4591 86.9803 9.39037 87.118 9.29519C87.2663 9.20002 87.3828 9.07312 87.4675 8.9145C87.5523 8.75588 87.5947 8.56554 87.5947 8.34347C87.5947 8.13197 87.5417 7.9522 87.4358 7.80415C87.3298 7.65611 87.1762 7.52392 86.975 7.4076C86.7843 7.28071 86.5407 7.16967 86.2441 7.0745C85.9581 6.96875 85.6297 6.85772 85.2589 6.74139C84.8988 6.62507 84.5439 6.4876 84.1943 6.32898C83.8553 6.17036 83.5481 5.96944 83.2727 5.72622C83.0079 5.47243 82.7908 5.17105 82.6213 4.82208C82.4624 4.46254 82.3829 4.02897 82.3829 3.52139C82.3829 2.89748 82.51 2.36345 82.7643 1.91931C83.0185 1.47518 83.3522 1.11035 83.7653 0.824829C84.1784 0.539311 84.6445 0.333104 85.1636 0.206207C85.6826 0.0687355 86.207 0 86.7366 0C87.3722 0 88.0184 0.116322 88.6752 0.348966C89.3425 0.58161 89.9251 0.925289 90.423 1.38L88.691 3.20414Z" fill="#141414"/>
<path d="M107.39 7.28071C107.39 7.95749 107.274 8.57611 107.041 9.13657C106.818 9.68646 106.495 10.1623 106.071 10.5642C105.648 10.9554 105.134 11.2621 104.53 11.4842C103.937 11.7062 103.275 11.8173 102.544 11.8173C101.802 11.8173 101.135 11.7062 100.542 11.4842C99.9485 11.2621 99.4454 10.9554 99.0322 10.5642C98.6191 10.1623 98.3013 9.68646 98.0789 9.13657C97.8564 8.57611 97.7452 7.95749 97.7452 7.28071V0.285518H100.446V7.05864C100.446 7.3653 100.483 7.65611 100.558 7.93105C100.642 8.206 100.764 8.4545 100.923 8.67657C101.093 8.88807 101.31 9.05726 101.575 9.18416C101.85 9.31106 102.178 9.3745 102.56 9.3745C102.941 9.3745 103.264 9.31106 103.529 9.18416C103.804 9.05726 104.027 8.88807 104.196 8.67657C104.366 8.4545 104.488 8.206 104.562 7.93105C104.636 7.65611 104.673 7.3653 104.673 7.05864V0.285518H107.39V7.28071Z" fill="#141414"/>
<path d="M121.25 3.20414C121.017 2.90805 120.71 2.67541 120.329 2.50621C119.958 2.32644 119.598 2.23656 119.248 2.23656C119.068 2.23656 118.883 2.25242 118.692 2.28414C118.512 2.31587 118.348 2.37932 118.199 2.47449C118.051 2.55909 117.924 2.67541 117.818 2.82345C117.723 2.96093 117.675 3.1407 117.675 3.36277C117.675 3.55311 117.712 3.71173 117.786 3.83863C117.871 3.96553 117.988 4.07656 118.136 4.17173C118.295 4.26691 118.48 4.35679 118.692 4.44139C118.904 4.51541 119.142 4.59472 119.407 4.67932C119.788 4.80622 120.186 4.94898 120.599 5.1076C121.012 5.25564 121.388 5.45656 121.727 5.71036C122.066 5.96415 122.347 6.28139 122.569 6.66208C122.791 7.0322 122.903 7.49749 122.903 8.05795C122.903 8.70301 122.781 9.26347 122.537 9.73933C122.304 10.2046 121.986 10.5906 121.584 10.8973C121.181 11.2039 120.721 11.4313 120.201 11.5793C119.682 11.7274 119.147 11.8014 118.597 11.8014C117.792 11.8014 117.013 11.6639 116.261 11.389C115.509 11.1035 114.884 10.7016 114.386 10.1835L116.166 8.37519C116.441 8.71358 116.801 8.9991 117.246 9.23175C117.702 9.45382 118.152 9.56485 118.597 9.56485C118.798 9.56485 118.994 9.5437 119.185 9.5014C119.375 9.4591 119.539 9.39037 119.677 9.29519C119.825 9.20002 119.942 9.07312 120.027 8.9145C120.111 8.75588 120.154 8.56554 120.154 8.34347C120.154 8.13197 120.101 7.9522 119.995 7.80415C119.889 7.65611 119.735 7.52392 119.534 7.4076C119.343 7.28071 119.1 7.16967 118.803 7.0745C118.517 6.96875 118.189 6.85772 117.818 6.74139C117.458 6.62507 117.103 6.4876 116.753 6.32898C116.414 6.17036 116.107 5.96944 115.832 5.72622C115.567 5.47243 115.35 5.17105 115.18 4.82208C115.021 4.46254 114.942 4.02897 114.942 3.52139C114.942 2.89748 115.069 2.36345 115.323 1.91931C115.578 1.47518 115.911 1.11035 116.324 0.824829C116.738 0.539311 117.204 0.333104 117.723 0.206207C118.242 0.0687355 118.766 0 119.296 0C119.931 0 120.578 0.116322 121.234 0.348966C121.902 0.58161 122.484 0.925289 122.982 1.38L121.25 3.20414Z" fill="#141414"/>
</svg>