<svg width="28" height="29" viewBox="0 0 28 29" fill="none" xmlns="http://www.w3.org/2000/svg">
<g opacity="0.9">
<g style="mix-blend-mode:multiply" opacity="0.75">
<path fill-rule="evenodd" clip-rule="evenodd" d="M14.0004 0.185756C21.6306 0.185756 27.8161 6.42327 27.8161 14.1176C27.8161 21.812 21.6306 28.0495 14.0004 28.0495C6.37011 28.0495 0.18457 21.812 0.18457 14.1176C0.184569 6.42327 6.37011 0.185756 14.0004 0.185756ZM8.20493 15.3108C7.90207 15.6501 7.93165 16.1707 8.27097 16.4735C8.6103 16.7764 9.1309 16.7468 9.43375 16.4075L14.0003 11.291L18.5668 16.4075C18.8696 16.7468 19.3902 16.7764 19.7295 16.4735C20.0689 16.1707 20.0984 15.6501 19.7956 15.3108L14.6147 9.50581C14.4584 9.33075 14.2349 9.23065 14.0003 9.23065C13.7656 9.23065 13.5421 9.33075 13.3858 9.50581L8.20493 15.3108Z" fill="#F9FAFB"/>
</g>
</g>
</svg>
